# xmcd CD database file
#
# Track frame offsets:
#	151
#	17080
#	35248
#	48539
#	63194
#	78467
#	95455
#	111755
#	126365
#	144976
#
# Disc length: 2099 seconds
#
# Revision: 2
# Processed by: cddbd v1.4b42PL1 Copyright (c) Steve Scherf et al.
# Submitted via: CDex 1.40Beta8
#
DISCID=8708310a
DTITLE=Valahia - Why
DYEAR=1900
DGENRE=Blues
TTITLE0=Banana
TTITLE1=Baby, Baby
TTITLE2=Why
TTITLE3=M-am indragostit
TTITLE4=Bautura si femei
TTITLE5=Pustoaico
TTITLE6=Lonely
TTITLE7=Vrem fetite dotate
TTITLE8=Mama
TTITLE9=As da zece zile de la mine
EXTD=ID3G: 0
EXTT0=
EXTT1=
EXTT2=
EXTT3=
EXTT4=
EXTT5=
EXTT6=
EXTT7=
EXTT8=
EXTT9=
PLAYORDER=
